  0
SECTION
  2
HEADER
  9
$ACADVER
  1
AC1009
  9
$FILLMODE
 70
 0
  9
$SPLFRAME
 70
 1
  9
$EXTMIN
 10
0
 20
0
 30
0.0
  9
$EXTMAX
 10
1058.33
 20
1058.33
 30
0.0
  0
ENDSEC
  0
SECTION
  2
TABLES
  0
TABLE
  2
LAYER
 70
1
  0
LAYER
  2
0
 70
     0
 62
     7
  6
CONTINUOUS
  0
ENDTAB
  0
ENDSEC
  0
SECTION
  2
ENTITIES
  0
LINE
  8
0
 62
     0
 10
0.0950846
 20
95.5075
 30
0.0
 11
314.42
 21
95.5075
 31
0.0
  0
LINE
  8
0
 62
     0
 10
314.42
 20
95.5075
 30
0.0
 11
314.42
 21
0.257693
 31
0.0
  0
LINE
  8
0
 62
     0
 10
314.42
 20
0.257693
 30
0.0
 11
0.0950846
 21
0.257693
 31
0.0
  0
LINE
  8
0
 62
     0
 10
0.0950846
 20
0.257693
 30
0.0
 11
0.0950846
 21
95.5075
 31
0.0
  0
LINE
  8
0
 62
     0
 10
93.1072
 20
16.7831
 30
0.0
 11
93.1072
 21
12.0826
 31
0.0
  0
LINE
  8
0
 62
     0
 10
93.1072
 20
12.0826
 30
0.0
 11
84.431
 21
12.0826
 31
0.0
  0
LINE
  8
0
 62
     0
 10
84.431
 20
12.0826
 30
0.0
 11
84.431
 21
15.3128
 31
0.0
  0
LINE
  8
0
 62
     0
 10
84.431
 20
15.3128
 30
0.0
 11
77.6813
 21
15.3128
 31
0.0
  0
LINE
  8
0
 62
     0
 10
77.6813
 20
15.3128
 30
0.0
 11
77.6813
 21
12.0826
 31
0.0
  0
LINE
  8
0
 62
     0
 10
77.6813
 20
12.0826
 30
0.0
 11
76.8558
 21
12.0826
 31
0.0
  0
LINE
  8
0
 62
     0
 10
76.8558
 20
12.0826
 30
0.0
 11
76.8558
 21
9.28384
 31
0.0
  0
LINE
  8
0
 62
     0
 10
76.8558
 20
9.28384
 30
0.0
 11
77.6813
 21
9.28384
 31
0.0
  0
LINE
  8
0
 62
     0
 10
77.6813
 20
9.28384
 30
0.0
 11
77.6813
 21
3.01377
 31
0.0
  0
LINE
  8
0
 62
     0
 10
77.6813
 20
3.01377
 30
0.0
 11
79.4067
 21
3.01377
 31
0.0
  0
LINE
  8
0
 62
     0
 10
79.4067
 20
3.01377
 30
0.0
 11
79.4067
 21
1.8135
 31
0.0
  0
LINE
  8
0
 62
     0
 10
79.4067
 20
1.8135
 30
0.0
 11
82.707
 21
1.8135
 31
0.0
  0
LINE
  8
0
 62
     0
 10
82.707
 20
1.8135
 30
0.0
 11
82.707
 21
3.01377
 31
0.0
  0
LINE
  8
0
 62
     0
 10
82.707
 20
3.01377
 30
0.0
 11
84.431
 21
3.01377
 31
0.0
  0
LINE
  8
0
 62
     0
 10
84.431
 20
3.01377
 30
0.0
 11
84.431
 21
7.48411
 31
0.0
  0
LINE
  8
0
 62
     0
 10
84.431
 20
7.48411
 30
0.0
 11
93.1072
 21
7.48411
 31
0.0
  0
LINE
  8
0
 62
     0
 10
93.1072
 20
7.48411
 30
0.0
 11
93.1072
 21
2.78364
 31
0.0
  0
LINE
  8
0
 62
     0
 10
93.1072
 20
2.78364
 30
0.0
 11
107.107
 21
2.78364
 31
0.0
  0
LINE
  8
0
 62
     0
 10
107.107
 20
2.78364
 30
0.0
 11
107.107
 21
7.48411
 31
0.0
  0
LINE
  8
0
 62
     0
 10
107.107
 20
7.48411
 30
0.0
 11
115.781
 21
7.48411
 31
0.0
  0
LINE
  8
0
 62
     0
 10
115.781
 20
7.48411
 30
0.0
 11
115.781
 21
3.01377
 31
0.0
  0
LINE
  8
0
 62
     0
 10
115.781
 20
3.01377
 30
0.0
 11
117.507
 21
3.01377
 31
0.0
  0
LINE
  8
0
 62
     0
 10
117.507
 20
3.01377
 30
0.0
 11
117.507
 21
1.8135
 31
0.0
  0
LINE
  8
0
 62
     0
 10
117.507
 20
1.8135
 30
0.0
 11
120.807
 21
1.8135
 31
0.0
  0
LINE
  8
0
 62
     0
 10
120.807
 20
1.8135
 30
0.0
 11
120.807
 21
3.01377
 31
0.0
  0
LINE
  8
0
 62
     0
 10
120.807
 20
3.01377
 30
0.0
 11
122.531
 21
3.01377
 31
0.0
  0
LINE
  8
0
 62
     0
 10
122.531
 20
3.01377
 30
0.0
 11
122.531
 21
9.28384
 31
0.0
  0
LINE
  8
0
 62
     0
 10
122.531
 20
9.28384
 30
0.0
 11
123.357
 21
9.28384
 31
0.0
  0
LINE
  8
0
 62
     0
 10
123.357
 20
9.28384
 30
0.0
 11
123.357
 21
12.0826
 31
0.0
  0
LINE
  8
0
 62
     0
 10
123.357
 20
12.0826
 30
0.0
 11
122.531
 21
12.0826
 31
0.0
  0
LINE
  8
0
 62
     0
 10
122.531
 20
12.0826
 30
0.0
 11
122.531
 21
15.3128
 31
0.0
  0
LINE
  8
0
 62
     0
 10
122.531
 20
15.3128
 30
0.0
 11
115.781
 21
15.3128
 31
0.0
  0
LINE
  8
0
 62
     0
 10
115.781
 20
15.3128
 30
0.0
 11
115.781
 21
12.0826
 31
0.0
  0
LINE
  8
0
 62
     0
 10
115.781
 20
12.0826
 30
0.0
 11
107.107
 21
12.0826
 31
0.0
  0
LINE
  8
0
 62
     0
 10
107.107
 20
12.0826
 30
0.0
 11
107.107
 21
16.7831
 31
0.0
  0
LINE
  8
0
 62
     0
 10
107.107
 20
16.7831
 30
0.0
 11
93.1072
 21
16.7831
 31
0.0
  0
LINE
  8
0
 62
     0
 10
150.257
 20
16.7831
 30
0.0
 11
150.257
 21
12.0826
 31
0.0
  0
LINE
  8
0
 62
     0
 10
150.257
 20
12.0826
 30
0.0
 11
141.581
 21
12.0826
 31
0.0
  0
LINE
  8
0
 62
     0
 10
141.581
 20
12.0826
 30
0.0
 11
141.581
 21
15.3128
 31
0.0
  0
LINE
  8
0
 62
     0
 10
141.581
 20
15.3128
 30
0.0
 11
134.831
 21
15.3128
 31
0.0
  0
LINE
  8
0
 62
     0
 10
134.831
 20
15.3128
 30
0.0
 11
134.831
 21
12.0826
 31
0.0
  0
LINE
  8
0
 62
     0
 10
134.831
 20
12.0826
 30
0.0
 11
134.006
 21
12.0826
 31
0.0
  0
LINE
  8
0
 62
     0
 10
134.006
 20
12.0826
 30
0.0
 11
134.006
 21
9.28384
 31
0.0
  0
LINE
  8
0
 62
     0
 10
134.006
 20
9.28384
 30
0.0
 11
134.831
 21
9.28384
 31
0.0
  0
LINE
  8
0
 62
     0
 10
134.831
 20
9.28384
 30
0.0
 11
134.831
 21
3.01377
 31
0.0
  0
LINE
  8
0
 62
     0
 10
134.831
 20
3.01377
 30
0.0
 11
136.557
 21
3.01377
 31
0.0
  0
LINE
  8
0
 62
     0
 10
136.557
 20
3.01377
 30
0.0
 11
136.557
 21
1.8135
 31
0.0
  0
LINE
  8
0
 62
     0
 10
136.557
 20
1.8135
 30
0.0
 11
139.857
 21
1.8135
 31
0.0
  0
LINE
  8
0
 62
     0
 10
139.857
 20
1.8135
 30
0.0
 11
139.857
 21
3.01377
 31
0.0
  0
LINE
  8
0
 62
     0
 10
139.857
 20
3.01377
 30
0.0
 11
141.581
 21
3.01377
 31
0.0
  0
LINE
  8
0
 62
     0
 10
141.581
 20
3.01377
 30
0.0
 11
141.581
 21
7.48411
 31
0.0
  0
LINE
  8
0
 62
     0
 10
141.581
 20
7.48411
 30
0.0
 11
150.257
 21
7.48411
 31
0.0
  0
LINE
  8
0
 62
     0
 10
150.257
 20
7.48411
 30
0.0
 11
150.257
 21
2.78364
 31
0.0
  0
LINE
  8
0
 62
     0
 10
150.257
 20
2.78364
 30
0.0
 11
164.257
 21
2.78364
 31
0.0
  0
LINE
  8
0
 62
     0
 10
164.257
 20
2.78364
 30
0.0
 11
164.257
 21
7.48411
 31
0.0
  0
LINE
  8
0
 62
     0
 10
164.257
 20
7.48411
 30
0.0
 11
172.931
 21
7.48411
 31
0.0
  0
LINE
  8
0
 62
     0
 10
172.931
 20
7.48411
 30
0.0
 11
172.931
 21
3.01377
 31
0.0
  0
LINE
  8
0
 62
     0
 10
172.931
 20
3.01377
 30
0.0
 11
174.657
 21
3.01377
 31
0.0
  0
LINE
  8
0
 62
     0
 10
174.657
 20
3.01377
 30
0.0
 11
174.657
 21
1.8135
 31
0.0
  0
LINE
  8
0
 62
     0
 10
174.657
 20
1.8135
 30
0.0
 11
177.957
 21
1.8135
 31
0.0
  0
LINE
  8
0
 62
     0
 10
177.957
 20
1.8135
 30
0.0
 11
177.957
 21
3.01377
 31
0.0
  0
LINE
  8
0
 62
     0
 10
177.957
 20
3.01377
 30
0.0
 11
179.681
 21
3.01377
 31
0.0
  0
LINE
  8
0
 62
     0
 10
179.681
 20
3.01377
 30
0.0
 11
179.681
 21
9.28384
 31
0.0
  0
LINE
  8
0
 62
     0
 10
179.681
 20
9.28384
 30
0.0
 11
180.507
 21
9.28384
 31
0.0
  0
LINE
  8
0
 62
     0
 10
180.507
 20
9.28384
 30
0.0
 11
180.507
 21
12.0826
 31
0.0
  0
LINE
  8
0
 62
     0
 10
180.507
 20
12.0826
 30
0.0
 11
179.681
 21
12.0826
 31
0.0
  0
LINE
  8
0
 62
     0
 10
179.681
 20
12.0826
 30
0.0
 11
179.681
 21
15.3128
 31
0.0
  0
LINE
  8
0
 62
     0
 10
179.681
 20
15.3128
 30
0.0
 11
172.931
 21
15.3128
 31
0.0
  0
LINE
  8
0
 62
     0
 10
172.931
 20
15.3128
 30
0.0
 11
172.931
 21
12.0826
 31
0.0
  0
LINE
  8
0
 62
     0
 10
172.931
 20
12.0826
 30
0.0
 11
164.257
 21
12.0826
 31
0.0
  0
LINE
  8
0
 62
     0
 10
164.257
 20
12.0826
 30
0.0
 11
164.257
 21
16.7831
 31
0.0
  0
LINE
  8
0
 62
     0
 10
164.257
 20
16.7831
 30
0.0
 11
150.257
 21
16.7831
 31
0.0
  0
LINE
  8
0
 62
     0
 10
5.00091
 20
16.7831
 30
0.0
 11
19.0004
 21
16.7831
 31
0.0
  0
LINE
  8
0
 62
     0
 10
19.0004
 20
16.7831
 30
0.0
 11
19.0004
 21
2.78364
 31
0.0
  0
LINE
  8
0
 62
     0
 10
19.0004
 20
2.78364
 30
0.0
 11
5.00091
 21
2.78364
 31
0.0
  0
LINE
  8
0
 62
     0
 10
5.00091
 20
2.78364
 30
0.0
 11
5.00091
 21
16.7831
 31
0.0
  0
LINE
  8
0
 62
     0
 10
28.812
 20
16.7831
 30
0.0
 11
42.8128
 21
16.7831
 31
0.0
  0
LINE
  8
0
 62
     0
 10
42.8128
 20
16.7831
 30
0.0
 11
42.8128
 21
2.78364
 31
0.0
  0
LINE
  8
0
 62
     0
 10
42.8128
 20
2.78364
 30
0.0
 11
28.812
 21
2.78364
 31
0.0
  0
LINE
  8
0
 62
     0
 10
28.812
 20
2.78364
 30
0.0
 11
28.812
 21
16.7831
 31
0.0
  0
LINE
  8
0
 62
     0
 10
52.626
 20
16.7831
 30
0.0
 11
66.6253
 21
16.7831
 31
0.0
  0
LINE
  8
0
 62
     0
 10
66.6253
 20
16.7831
 30
0.0
 11
66.6253
 21
2.78364
 31
0.0
  0
LINE
  8
0
 62
     0
 10
66.6253
 20
2.78364
 30
0.0
 11
52.626
 21
2.78364
 31
0.0
  0
LINE
  8
0
 62
     0
 10
52.626
 20
2.78364
 30
0.0
 11
52.626
 21
16.7831
 31
0.0
  0
LINE
  8
0
 62
     0
 10
190.737
 20
16.7831
 30
0.0
 11
204.738
 21
16.7831
 31
0.0
  0
LINE
  8
0
 62
     0
 10
204.738
 20
16.7831
 30
0.0
 11
204.738
 21
2.78364
 31
0.0
  0
LINE
  8
0
 62
     0
 10
204.738
 20
2.78364
 30
0.0
 11
190.737
 21
2.78364
 31
0.0
  0
LINE
  8
0
 62
     0
 10
190.737
 20
2.78364
 30
0.0
 11
190.737
 21
16.7831
 31
0.0
  0
LINE
  8
0
 62
     0
 10
214.551
 20
16.7831
 30
0.0
 11
228.55
 21
16.7831
 31
0.0
  0
LINE
  8
0
 62
     0
 10
228.55
 20
16.7831
 30
0.0
 11
228.55
 21
2.78364
 31
0.0
  0
LINE
  8
0
 62
     0
 10
228.55
 20
2.78364
 30
0.0
 11
214.551
 21
2.78364
 31
0.0
  0
LINE
  8
0
 62
     0
 10
214.551
 20
2.78364
 30
0.0
 11
214.551
 21
16.7831
 31
0.0
  0
LINE
  8
0
 62
     0
 10
238.362
 20
16.7831
 30
0.0
 11
252.361
 21
16.7831
 31
0.0
  0
LINE
  8
0
 62
     0
 10
252.361
 20
16.7831
 30
0.0
 11
252.361
 21
2.78364
 31
0.0
  0
LINE
  8
0
 62
     0
 10
252.361
 20
2.78364
 30
0.0
 11
238.362
 21
2.78364
 31
0.0
  0
LINE
  8
0
 62
     0
 10
238.362
 20
2.78364
 30
0.0
 11
238.362
 21
16.7831
 31
0.0
  0
LINE
  8
0
 62
     0
 10
259.795
 20
16.7831
 30
0.0
 11
273.794
 21
16.7831
 31
0.0
  0
LINE
  8
0
 62
     0
 10
273.794
 20
16.7831
 30
0.0
 11
273.794
 21
2.78364
 31
0.0
  0
LINE
  8
0
 62
     0
 10
273.794
 20
2.78364
 30
0.0
 11
259.795
 21
2.78364
 31
0.0
  0
LINE
  8
0
 62
     0
 10
259.795
 20
2.78364
 30
0.0
 11
259.795
 21
16.7831
 31
0.0
  0
LINE
  8
0
 62
     0
 10
278.845
 20
16.7831
 30
0.0
 11
292.844
 21
16.7831
 31
0.0
  0
LINE
  8
0
 62
     0
 10
292.844
 20
16.7831
 30
0.0
 11
292.844
 21
2.78364
 31
0.0
  0
LINE
  8
0
 62
     0
 10
292.844
 20
2.78364
 30
0.0
 11
278.845
 21
2.78364
 31
0.0
  0
LINE
  8
0
 62
     0
 10
278.845
 20
2.78364
 30
0.0
 11
278.845
 21
16.7831
 31
0.0
  0
LINE
  8
0
 62
     0
 10
297.895
 20
16.7831
 30
0.0
 11
311.894
 21
16.7831
 31
0.0
  0
LINE
  8
0
 62
     0
 10
311.894
 20
16.7831
 30
0.0
 11
311.894
 21
2.78364
 31
0.0
  0
LINE
  8
0
 62
     0
 10
311.894
 20
2.78364
 30
0.0
 11
297.895
 21
2.78364
 31
0.0
  0
LINE
  8
0
 62
     0
 10
297.895
 20
2.78364
 30
0.0
 11
297.895
 21
16.7831
 31
0.0
  0
LINE
  8
0
 62
     0
 10
14.5259
 20
35.833
 30
0.0
 11
14.5259
 21
31.1326
 31
0.0
  0
LINE
  8
0
 62
     0
 10
14.5259
 20
31.1326
 30
0.0
 11
13.0004
 21
31.1326
 31
0.0
  0
LINE
  8
0
 62
     0
 10
13.0004
 20
31.1326
 30
0.0
 11
13.0004
 21
34.3628
 31
0.0
  0
LINE
  8
0
 62
     0
 10
13.0004
 20
34.3628
 30
0.0
 11
6.2508
 21
34.3628
 31
0.0
  0
LINE
  8
0
 62
     0
 10
6.2508
 20
34.3628
 30
0.0
 11
6.2508
 21
31.1326
 31
0.0
  0
LINE
  8
0
 62
     0
 10
6.2508
 20
31.1326
 30
0.0
 11
5.42533
 21
31.1326
 31
0.0
  0
LINE
  8
0
 62
     0
 10
5.42533
 20
31.1326
 30
0.0
 11
5.42533
 21
28.3338
 31
0.0
  0
LINE
  8
0
 62
     0
 10
5.42533
 20
28.3338
 30
0.0
 11
6.2508
 21
28.3338
 31
0.0
  0
LINE
  8
0
 62
     0
 10
6.2508
 20
28.3338
 30
0.0
 11
6.2508
 21
22.0638
 31
0.0
  0
LINE
  8
0
 62
     0
 10
6.2508
 20
22.0638
 30
0.0
 11
7.97609
 21
22.0638
 31
0.0
  0
LINE
  8
0
 62
     0
 10
7.97609
 20
22.0638
 30
0.0
 11
7.97609
 21
20.8635
 31
0.0
  0
LINE
  8
0
 62
     0
 10
7.97609
 20
20.8635
 30
0.0
 11
11.2751
 21
20.8635
 31
0.0
  0
LINE
  8
0
 62
     0
 10
11.2751
 20
20.8635
 30
0.0
 11
11.2751
 21
22.0638
 31
0.0
  0
LINE
  8
0
 62
     0
 10
11.2751
 20
22.0638
 30
0.0
 11
13.0004
 21
22.0638
 31
0.0
  0
LINE
  8
0
 62
     0
 10
13.0004
 20
22.0638
 30
0.0
 11
13.0004
 21
26.5327
 31
0.0
  0
LINE
  8
0
 62
     0
 10
13.0004
 20
26.5327
 30
0.0
 11
14.5259
 21
26.5327
 31
0.0
  0
LINE
  8
0
 62
     0
 10
14.5259
 20
26.5327
 30
0.0
 11
14.5259
 21
21.8336
 31
0.0
  0
LINE
  8
0
 62
     0
 10
14.5259
 20
21.8336
 30
0.0
 11
28.5254
 21
21.8336
 31
0.0
  0
LINE
  8
0
 62
     0
 10
28.5254
 20
21.8336
 30
0.0
 11
28.5254
 21
26.5327
 31
0.0
  0
LINE
  8
0
 62
     0
 10
28.5254
 20
26.5327
 30
0.0
 11
30.0509
 21
26.5327
 31
0.0
  0
LINE
  8
0
 62
     0
 10
30.0509
 20
26.5327
 30
0.0
 11
30.0509
 21
22.0638
 31
0.0
  0
LINE
  8
0
 62
     0
 10
30.0509
 20
22.0638
 30
0.0
 11
31.7748
 21
22.0638
 31
0.0
  0
LINE
  8
0
 62
     0
 10
31.7748
 20
22.0638
 30
0.0
 11
31.7748
 21
20.8635
 31
0.0
  0
LINE
  8
0
 62
     0
 10
31.7748
 20
20.8635
 30
0.0
 11
35.0752
 21
20.8635
 31
0.0
  0
LINE
  8
0
 62
     0
 10
35.0752
 20
20.8635
 30
0.0
 11
35.0752
 21
22.0638
 31
0.0
  0
LINE
  8
0
 62
     0
 10
35.0752
 20
22.0638
 30
0.0
 11
36.8004
 21
22.0638
 31
0.0
  0
LINE
  8
0
 62
     0
 10
36.8004
 20
22.0638
 30
0.0
 11
36.8004
 21
28.3338
 31
0.0
  0
LINE
  8
0
 62
     0
 10
36.8004
 20
28.3338
 30
0.0
 11
37.6259
 21
28.3338
 31
0.0
  0
LINE
  8
0
 62
     0
 10
37.6259
 20
28.3338
 30
0.0
 11
37.6259
 21
31.1326
 31
0.0
  0
LINE
  8
0
 62
     0
 10
37.6259
 20
31.1326
 30
0.0
 11
36.8004
 21
31.1326
 31
0.0
  0
LINE
  8
0
 62
     0
 10
36.8004
 20
31.1326
 30
0.0
 11
36.8004
 21
34.3628
 31
0.0
  0
LINE
  8
0
 62
     0
 10
36.8004
 20
34.3628
 30
0.0
 11
30.0509
 21
34.3628
 31
0.0
  0
LINE
  8
0
 62
     0
 10
30.0509
 20
34.3628
 30
0.0
 11
30.0509
 21
31.1326
 31
0.0
  0
LINE
  8
0
 62
     0
 10
30.0509
 20
31.1326
 30
0.0
 11
28.5254
 21
31.1326
 31
0.0
  0
LINE
  8
0
 62
     0
 10
28.5254
 20
31.1326
 30
0.0
 11
28.5254
 21
35.833
 31
0.0
  0
LINE
  8
0
 62
     0
 10
28.5254
 20
35.833
 30
0.0
 11
14.5259
 21
35.833
 31
0.0
  0
LINE
  8
0
 62
     0
 10
247.887
 20
35.833
 30
0.0
 11
247.887
 21
31.1326
 31
0.0
  0
LINE
  8
0
 62
     0
 10
247.887
 20
31.1326
 30
0.0
 11
246.363
 21
31.1326
 31
0.0
  0
LINE
  8
0
 62
     0
 10
246.363
 20
31.1326
 30
0.0
 11
246.363
 21
34.3628
 31
0.0
  0
LINE
  8
0
 62
     0
 10
246.363
 20
34.3628
 30
0.0
 11
239.612
 21
34.3628
 31
0.0
  0
LINE
  8
0
 62
     0
 10
239.612
 20
34.3628
 30
0.0
 11
239.612
 21
31.1326
 31
0.0
  0
LINE
  8
0
 62
     0
 10
239.612
 20
31.1326
 30
0.0
 11
238.788
 21
31.1326
 31
0.0
  0
LINE
  8
0
 62
     0
 10
238.788
 20
31.1326
 30
0.0
 11
238.788
 21
28.3338
 31
0.0
  0
LINE
  8
0
 62
     0
 10
238.788
 20
28.3338
 30
0.0
 11
239.612
 21
28.3338
 31
0.0
  0
LINE
  8
0
 62
     0
 10
239.612
 20
28.3338
 30
0.0
 11
239.612
 21
22.0638
 31
0.0
  0
LINE
  8
0
 62
     0
 10
239.612
 20
22.0638
 30
0.0
 11
241.337
 21
22.0638
 31
0.0
  0
LINE
  8
0
 62
     0
 10
241.337
 20
22.0638
 30
0.0
 11
241.337
 21
20.8635
 31
0.0
  0
LINE
  8
0
 62
     0
 10
241.337
 20
20.8635
 30
0.0
 11
244.638
 21
20.8635
 31
0.0
  0
LINE
  8
0
 62
     0
 10
244.638
 20
20.8635
 30
0.0
 11
244.638
 21
22.0638
 31
0.0
  0
LINE
  8
0
 62
     0
 10
244.638
 20
22.0638
 30
0.0
 11
246.363
 21
22.0638
 31
0.0
  0
LINE
  8
0
 62
     0
 10
246.363
 20
22.0638
 30
0.0
 11
246.363
 21
26.5327
 31
0.0
  0
LINE
  8
0
 62
     0
 10
246.363
 20
26.5327
 30
0.0
 11
247.887
 21
26.5327
 31
0.0
  0
LINE
  8
0
 62
     0
 10
247.887
 20
26.5327
 30
0.0
 11
247.887
 21
21.8336
 31
0.0
  0
LINE
  8
0
 62
     0
 10
247.887
 20
21.8336
 30
0.0
 11
261.888
 21
21.8336
 31
0.0
  0
LINE
  8
0
 62
     0
 10
261.888
 20
21.8336
 30
0.0
 11
261.888
 21
26.5327
 31
0.0
  0
LINE
  8
0
 62
     0
 10
261.888
 20
26.5327
 30
0.0
 11
263.412
 21
26.5327
 31
0.0
  0
LINE
  8
0
 62
     0
 10
263.412
 20
26.5327
 30
0.0
 11
263.412
 21
22.0638
 31
0.0
  0
LINE
  8
0
 62
     0
 10
263.412
 20
22.0638
 30
0.0
 11
265.137
 21
22.0638
 31
0.0
  0
LINE
  8
0
 62
     0
 10
265.137
 20
22.0638
 30
0.0
 11
265.137
 21
20.8635
 31
0.0
  0
LINE
  8
0
 62
     0
 10
265.137
 20
20.8635
 30
0.0
 11
268.438
 21
20.8635
 31
0.0
  0
LINE
  8
0
 62
     0
 10
268.438
 20
20.8635
 30
0.0
 11
268.438
 21
22.0638
 31
0.0
  0
LINE
  8
0
 62
     0
 10
268.438
 20
22.0638
 30
0.0
 11
270.163
 21
22.0638
 31
0.0
  0
LINE
  8
0
 62
     0
 10
270.163
 20
22.0638
 30
0.0
 11
270.163
 21
28.3338
 31
0.0
  0
LINE
  8
0
 62
     0
 10
270.163
 20
28.3338
 30
0.0
 11
270.987
 21
28.3338
 31
0.0
  0
LINE
  8
0
 62
     0
 10
270.987
 20
28.3338
 30
0.0
 11
270.987
 21
31.1326
 31
0.0
  0
LINE
  8
0
 62
     0
 10
270.987
 20
31.1326
 30
0.0
 11
270.163
 21
31.1326
 31
0.0
  0
LINE
  8
0
 62
     0
 10
270.163
 20
31.1326
 30
0.0
 11
270.163
 21
34.3628
 31
0.0
  0
LINE
  8
0
 62
     0
 10
270.163
 20
34.3628
 30
0.0
 11
263.412
 21
34.3628
 31
0.0
  0
LINE
  8
0
 62
     0
 10
263.412
 20
34.3628
 30
0.0
 11
263.412
 21
31.1326
 31
0.0
  0
LINE
  8
0
 62
     0
 10
263.412
 20
31.1326
 30
0.0
 11
261.888
 21
31.1326
 31
0.0
  0
LINE
  8
0
 62
     0
 10
261.888
 20
31.1326
 30
0.0
 11
261.888
 21
35.833
 31
0.0
  0
LINE
  8
0
 62
     0
 10
261.888
 20
35.833
 30
0.0
 11
247.887
 21
35.833
 31
0.0
  0
LINE
  8
0
 62
     0
 10
45.4822
 20
35.833
 30
0.0
 11
59.4815
 21
35.833
 31
0.0
  0
LINE
  8
0
 62
     0
 10
59.4815
 20
35.833
 30
0.0
 11
59.4815
 21
21.8336
 31
0.0
  0
LINE
  8
0
 62
     0
 10
59.4815
 20
21.8336
 30
0.0
 11
45.4822
 21
21.8336
 31
0.0
  0
LINE
  8
0
 62
     0
 10
45.4822
 20
21.8336
 30
0.0
 11
45.4822
 21
35.833
 31
0.0
  0
LINE
  8
0
 62
     0
 10
64.5322
 20
35.833
 30
0.0
 11
78.5315
 21
35.833
 31
0.0
  0
LINE
  8
0
 62
     0
 10
78.5315
 20
35.833
 30
0.0
 11
78.5315
 21
21.8336
 31
0.0
  0
LINE
  8
0
 62
     0
 10
78.5315
 20
21.8336
 30
0.0
 11
64.5322
 21
21.8336
 31
0.0
  0
LINE
  8
0
 62
     0
 10
64.5322
 20
21.8336
 30
0.0
 11
64.5322
 21
35.833
 31
0.0
  0
LINE
  8
0
 62
     0
 10
83.5822
 20
35.833
 30
0.0
 11
97.5815
 21
35.833
 31
0.0
  0
LINE
  8
0
 62
     0
 10
97.5815
 20
35.833
 30
0.0
 11
97.5815
 21
21.8336
 31
0.0
  0
LINE
  8
0
 62
     0
 10
97.5815
 20
21.8336
 30
0.0
 11
83.5822
 21
21.8336
 31
0.0
  0
LINE
  8
0
 62
     0
 10
83.5822
 20
21.8336
 30
0.0
 11
83.5822
 21
35.833
 31
0.0
  0
LINE
  8
0
 62
     0
 10
102.632
 20
35.833
 30
0.0
 11
116.632
 21
35.833
 31
0.0
  0
LINE
  8
0
 62
     0
 10
116.632
 20
35.833
 30
0.0
 11
116.632
 21
21.8336
 31
0.0
  0
LINE
  8
0
 62
     0
 10
116.632
 20
21.8336
 30
0.0
 11
102.632
 21
21.8336
 31
0.0
  0
LINE
  8
0
 62
     0
 10
102.632
 20
21.8336
 30
0.0
 11
102.632
 21
35.833
 31
0.0
  0
LINE
  8
0
 62
     0
 10
121.682
 20
35.833
 30
0.0
 11
135.682
 21
35.833
 31
0.0
  0
LINE
  8
0
 62
     0
 10
135.682
 20
35.833
 30
0.0
 11
135.682
 21
21.8336
 31
0.0
  0
LINE
  8
0
 62
     0
 10
135.682
 20
21.8336
 30
0.0
 11
121.682
 21
21.8336
 31
0.0
  0
LINE
  8
0
 62
     0
 10
121.682
 20
21.8336
 30
0.0
 11
121.682
 21
35.833
 31
0.0
  0
LINE
  8
0
 62
     0
 10
140.732
 20
35.833
 30
0.0
 11
154.732
 21
35.833
 31
0.0
  0
LINE
  8
0
 62
     0
 10
154.732
 20
35.833
 30
0.0
 11
154.732
 21
21.8336
 31
0.0
  0
LINE
  8
0
 62
     0
 10
154.732
 20
21.8336
 30
0.0
 11
140.732
 21
21.8336
 31
0.0
  0
LINE
  8
0
 62
     0
 10
140.732
 20
21.8336
 30
0.0
 11
140.732
 21
35.833
 31
0.0
  0
LINE
  8
0
 62
     0
 10
159.782
 20
35.833
 30
0.0
 11
173.782
 21
35.833
 31
0.0
  0
LINE
  8
0
 62
     0
 10
173.782
 20
35.833
 30
0.0
 11
173.782
 21
21.8336
 31
0.0
  0
LINE
  8
0
 62
     0
 10
173.782
 20
21.8336
 30
0.0
 11
159.782
 21
21.8336
 31
0.0
  0
LINE
  8
0
 62
     0
 10
159.782
 20
21.8336
 30
0.0
 11
159.782
 21
35.833
 31
0.0
  0
LINE
  8
0
 62
     0
 10
178.832
 20
35.833
 30
0.0
 11
192.832
 21
35.833
 31
0.0
  0
LINE
  8
0
 62
     0
 10
192.832
 20
35.833
 30
0.0
 11
192.832
 21
21.8336
 31
0.0
  0
LINE
  8
0
 62
     0
 10
192.832
 20
21.8336
 30
0.0
 11
178.832
 21
21.8336
 31
0.0
  0
LINE
  8
0
 62
     0
 10
178.832
 20
21.8336
 30
0.0
 11
178.832
 21
35.833
 31
0.0
  0
LINE
  8
0
 62
     0
 10
197.882
 20
35.833
 30
0.0
 11
211.882
 21
35.833
 31
0.0
  0
LINE
  8
0
 62
     0
 10
211.882
 20
35.833
 30
0.0
 11
211.882
 21
21.8336
 31
0.0
  0
LINE
  8
0
 62
     0
 10
211.882
 20
21.8336
 30
0.0
 11
197.882
 21
21.8336
 31
0.0
  0
LINE
  8
0
 62
     0
 10
197.882
 20
21.8336
 30
0.0
 11
197.882
 21
35.833
 31
0.0
  0
LINE
  8
0
 62
     0
 10
216.932
 20
35.833
 30
0.0
 11
230.932
 21
35.833
 31
0.0
  0
LINE
  8
0
 62
     0
 10
230.932
 20
35.833
 30
0.0
 11
230.932
 21
21.8336
 31
0.0
  0
LINE
  8
0
 62
     0
 10
230.932
 20
21.8336
 30
0.0
 11
216.932
 21
21.8336
 31
0.0
  0
LINE
  8
0
 62
     0
 10
216.932
 20
21.8336
 30
0.0
 11
216.932
 21
35.833
 31
0.0
  0
LINE
  8
0
 62
     0
 10
278.845
 20
35.833
 30
0.0
 11
292.844
 21
35.833
 31
0.0
  0
LINE
  8
0
 62
     0
 10
292.844
 20
35.833
 30
0.0
 11
292.844
 21
21.8336
 31
0.0
  0
LINE
  8
0
 62
     0
 10
292.844
 20
21.8336
 30
0.0
 11
278.845
 21
21.8336
 31
0.0
  0
LINE
  8
0
 62
     0
 10
278.845
 20
21.8336
 30
0.0
 11
278.845
 21
35.833
 31
0.0
  0
LINE
  8
0
 62
     0
 10
257.412
 20
54.8831
 30
0.0
 11
257.412
 21
50.1826
 31
0.0
  0
LINE
  8
0
 62
     0
 10
257.412
 20
50.1826
 30
0.0
 11
255.888
 21
50.1826
 31
0.0
  0
LINE
  8
0
 62
     0
 10
255.888
 20
50.1826
 30
0.0
 11
255.888
 21
53.4127
 31
0.0
  0
LINE
  8
0
 62
     0
 10
255.888
 20
53.4127
 30
0.0
 11
249.137
 21
53.4127
 31
0.0
  0
LINE
  8
0
 62
     0
 10
249.137
 20
53.4127
 30
0.0
 11
249.137
 21
50.1826
 31
0.0
  0
LINE
  8
0
 62
     0
 10
249.137
 20
50.1826
 30
0.0
 11
248.313
 21
50.1826
 31
0.0
  0
LINE
  8
0
 62
     0
 10
248.313
 20
50.1826
 30
0.0
 11
248.313
 21
47.3837
 31
0.0
  0
LINE
  8
0
 62
     0
 10
248.313
 20
47.3837
 30
0.0
 11
249.137
 21
47.3837
 31
0.0
  0
LINE
  8
0
 62
     0
 10
249.137
 20
47.3837
 30
0.0
 11
249.137
 21
41.1138
 31
0.0
  0
LINE
  8
0
 62
     0
 10
249.137
 20
41.1138
 30
0.0
 11
250.862
 21
41.1138
 31
0.0
  0
LINE
  8
0
 62
     0
 10
250.862
 20
41.1138
 30
0.0
 11
250.862
 21
39.9136
 31
0.0
  0
LINE
  8
0
 62
     0
 10
250.862
 20
39.9136
 30
0.0
 11
254.161
 21
39.9136
 31
0.0
  0
LINE
  8
0
 62
     0
 10
254.161
 20
39.9136
 30
0.0
 11
254.161
 21
41.1138
 31
0.0
  0
LINE
  8
0
 62
     0
 10
254.161
 20
41.1138
 30
0.0
 11
255.888
 21
41.1138
 31
0.0
  0
LINE
  8
0
 62
     0
 10
255.888
 20
41.1138
 30
0.0
 11
255.888
 21
45.5828
 31
0.0
  0
LINE
  8
0
 62
     0
 10
255.888
 20
45.5828
 30
0.0
 11
257.412
 21
45.5828
 31
0.0
  0
LINE
  8
0
 62
     0
 10
257.412
 20
45.5828
 30
0.0
 11
257.412
 21
40.8838
 31
0.0
  0
LINE
  8
0
 62
     0
 10
257.412
 20
40.8838
 30
0.0
 11
271.413
 21
40.8838
 31
0.0
  0
LINE
  8
0
 62
     0
 10
271.413
 20
40.8838
 30
0.0
 11
271.413
 21
45.5828
 31
0.0
  0
LINE
  8
0
 62
     0
 10
271.413
 20
45.5828
 30
0.0
 11
272.937
 21
45.5828
 31
0.0
  0
LINE
  8
0
 62
     0
 10
272.937
 20
45.5828
 30
0.0
 11
272.937
 21
41.1138
 31
0.0
  0
LINE
  8
0
 62
     0
 10
272.937
 20
41.1138
 30
0.0
 11
274.662
 21
41.1138
 31
0.0
  0
LINE
  8
0
 62
     0
 10
274.662
 20
41.1138
 30
0.0
 11
274.662
 21
39.9136
 31
0.0
  0
LINE
  8
0
 62
     0
 10
274.662
 20
39.9136
 30
0.0
 11
277.963
 21
39.9136
 31
0.0
  0
LINE
  8
0
 62
     0
 10
277.963
 20
39.9136
 30
0.0
 11
277.963
 21
41.1138
 31
0.0
  0
LINE
  8
0
 62
     0
 10
277.963
 20
41.1138
 30
0.0
 11
279.688
 21
41.1138
 31
0.0
  0
LINE
  8
0
 62
     0
 10
279.688
 20
41.1138
 30
0.0
 11
279.688
 21
47.3837
 31
0.0
  0
LINE
  8
0
 62
     0
 10
279.688
 20
47.3837
 30
0.0
 11
280.512
 21
47.3837
 31
0.0
  0
LINE
  8
0
 62
     0
 10
280.512
 20
47.3837
 30
0.0
 11
280.512
 21
50.1826
 31
0.0
  0
LINE
  8
0
 62
     0
 10
280.512
 20
50.1826
 30
0.0
 11
279.688
 21
50.1826
 31
0.0
  0
LINE
  8
0
 62
     0
 10
279.688
 20
50.1826
 30
0.0
 11
279.688
 21
53.4127
 31
0.0
  0
LINE
  8
0
 62
     0
 10
279.688
 20
53.4127
 30
0.0
 11
272.937
 21
53.4127
 31
0.0
  0
LINE
  8
0
 62
     0
 10
272.937
 20
53.4127
 30
0.0
 11
272.937
 21
50.1826
 31
0.0
  0
LINE
  8
0
 62
     0
 10
272.937
 20
50.1826
 30
0.0
 11
271.413
 21
50.1826
 31
0.0
  0
LINE
  8
0
 62
     0
 10
271.413
 20
50.1826
 30
0.0
 11
271.413
 21
54.8831
 31
0.0
  0
LINE
  8
0
 62
     0
 10
271.413
 20
54.8831
 30
0.0
 11
257.412
 21
54.8831
 31
0.0
  0
LINE
  8
0
 62
     0
 10
9.76203
 20
54.8831
 30
0.0
 11
23.7629
 21
54.8831
 31
0.0
  0
LINE
  8
0
 62
     0
 10
23.7629
 20
54.8831
 30
0.0
 11
23.7629
 21
40.8838
 31
0.0
  0
LINE
  8
0
 62
     0
 10
23.7629
 20
40.8838
 30
0.0
 11
9.76203
 21
40.8838
 31
0.0
  0
LINE
  8
0
 62
     0
 10
9.76203
 20
40.8838
 30
0.0
 11
9.76203
 21
54.8831
 31
0.0
  0
LINE
  8
0
 62
     0
 10
35.9572
 20
54.8831
 30
0.0
 11
49.9565
 21
54.8831
 31
0.0
  0
LINE
  8
0
 62
     0
 10
49.9565
 20
54.8831
 30
0.0
 11
49.9565
 21
40.8838
 31
0.0
  0
LINE
  8
0
 62
     0
 10
49.9565
 20
40.8838
 30
0.0
 11
35.9572
 21
40.8838
 31
0.0
  0
LINE
  8
0
 62
     0
 10
35.9572
 20
40.8838
 30
0.0
 11
35.9572
 21
54.8831
 31
0.0
  0
LINE
  8
0
 62
     0
 10
55.0072
 20
54.8831
 30
0.0
 11
69.0065
 21
54.8831
 31
0.0
  0
LINE
  8
0
 62
     0
 10
69.0065
 20
54.8831
 30
0.0
 11
69.0065
 21
40.8838
 31
0.0
  0
LINE
  8
0
 62
     0
 10
69.0065
 20
40.8838
 30
0.0
 11
55.0072
 21
40.8838
 31
0.0
  0
LINE
  8
0
 62
     0
 10
55.0072
 20
40.8838
 30
0.0
 11
55.0072
 21
54.8831
 31
0.0
  0
LINE
  8
0
 62
     0
 10
74.0572
 20
54.8831
 30
0.0
 11
88.0565
 21
54.8831
 31
0.0
  0
LINE
  8
0
 62
     0
 10
88.0565
 20
54.8831
 30
0.0
 11
88.0565
 21
40.8838
 31
0.0
  0
LINE
  8
0
 62
     0
 10
88.0565
 20
40.8838
 30
0.0
 11
74.0572
 21
40.8838
 31
0.0
  0
LINE
  8
0
 62
     0
 10
74.0572
 20
40.8838
 30
0.0
 11
74.0572
 21
54.8831
 31
0.0
  0
LINE
  8
0
 62
     0
 10
93.1072
 20
54.8831
 30
0.0
 11
107.107
 21
54.8831
 31
0.0
  0
LINE
  8
0
 62
     0
 10
107.107
 20
54.8831
 30
0.0
 11
107.107
 21
40.8838
 31
0.0
  0
LINE
  8
0
 62
     0
 10
107.107
 20
40.8838
 30
0.0
 11
93.1072
 21
40.8838
 31
0.0
  0
LINE
  8
0
 62
     0
 10
93.1072
 20
40.8838
 30
0.0
 11
93.1072
 21
54.8831
 31
0.0
  0
LINE
  8
0
 62
     0
 10
112.157
 20
54.8831
 30
0.0
 11
126.157
 21
54.8831
 31
0.0
  0
LINE
  8
0
 62
     0
 10
126.157
 20
54.8831
 30
0.0
 11
126.157
 21
40.8838
 31
0.0
  0
LINE
  8
0
 62
     0
 10
126.157
 20
40.8838
 30
0.0
 11
112.157
 21
40.8838
 31
0.0
  0
LINE
  8
0
 62
     0
 10
112.157
 20
40.8838
 30
0.0
 11
112.157
 21
54.8831
 31
0.0
  0
LINE
  8
0
 62
     0
 10
131.207
 20
54.8831
 30
0.0
 11
145.207
 21
54.8831
 31
0.0
  0
LINE
  8
0
 62
     0
 10
145.207
 20
54.8831
 30
0.0
 11
145.207
 21
40.8838
 31
0.0
  0
LINE
  8
0
 62
     0
 10
145.207
 20
40.8838
 30
0.0
 11
131.207
 21
40.8838
 31
0.0
  0
LINE
  8
0
 62
     0
 10
131.207
 20
40.8838
 30
0.0
 11
131.207
 21
54.8831
 31
0.0
  0
LINE
  8
0
 62
     0
 10
150.257
 20
54.8831
 30
0.0
 11
164.257
 21
54.8831
 31
0.0
  0
LINE
  8
0
 62
     0
 10
164.257
 20
54.8831
 30
0.0
 11
164.257
 21
40.8838
 31
0.0
  0
LINE
  8
0
 62
     0
 10
164.257
 20
40.8838
 30
0.0
 11
150.257
 21
40.8838
 31
0.0
  0
LINE
  8
0
 62
     0
 10
150.257
 20
40.8838
 30
0.0
 11
150.257
 21
54.8831
 31
0.0
  0
LINE
  8
0
 62
     0
 10
169.307
 20
54.8831
 30
0.0
 11
183.307
 21
54.8831
 31
0.0
  0
LINE
  8
0
 62
     0
 10
183.307
 20
54.8831
 30
0.0
 11
183.307
 21
40.8838
 31
0.0
  0
LINE
  8
0
 62
     0
 10
183.307
 20
40.8838
 30
0.0
 11
169.307
 21
40.8838
 31
0.0
  0
LINE
  8
0
 62
     0
 10
169.307
 20
40.8838
 30
0.0
 11
169.307
 21
54.8831
 31
0.0
  0
LINE
  8
0
 62
     0
 10
188.357
 20
54.8831
 30
0.0
 11
202.357
 21
54.8831
 31
0.0
  0
LINE
  8
0
 62
     0
 10
202.357
 20
54.8831
 30
0.0
 11
202.357
 21
40.8838
 31
0.0
  0
LINE
  8
0
 62
     0
 10
202.357
 20
40.8838
 30
0.0
 11
188.357
 21
40.8838
 31
0.0
  0
LINE
  8
0
 62
     0
 10
188.357
 20
40.8838
 30
0.0
 11
188.357
 21
54.8831
 31
0.0
  0
LINE
  8
0
 62
     0
 10
207.407
 20
54.8831
 30
0.0
 11
221.407
 21
54.8831
 31
0.0
  0
LINE
  8
0
 62
     0
 10
221.407
 20
54.8831
 30
0.0
 11
221.407
 21
40.8838
 31
0.0
  0
LINE
  8
0
 62
     0
 10
221.407
 20
40.8838
 30
0.0
 11
207.407
 21
40.8838
 31
0.0
  0
LINE
  8
0
 62
     0
 10
207.407
 20
40.8838
 30
0.0
 11
207.407
 21
54.8831
 31
0.0
  0
LINE
  8
0
 62
     0
 10
226.457
 20
54.8831
 30
0.0
 11
240.457
 21
54.8831
 31
0.0
  0
LINE
  8
0
 62
     0
 10
240.457
 20
54.8831
 30
0.0
 11
240.457
 21
40.8838
 31
0.0
  0
LINE
  8
0
 62
     0
 10
240.457
 20
40.8838
 30
0.0
 11
226.457
 21
40.8838
 31
0.0
  0
LINE
  8
0
 62
     0
 10
226.457
 20
40.8838
 30
0.0
 11
226.457
 21
54.8831
 31
0.0
  0
LINE
  8
0
 62
     0
 10
7.38216
 20
73.9331
 30
0.0
 11
21.3817
 21
73.9331
 31
0.0
  0
LINE
  8
0
 62
     0
 10
21.3817
 20
73.9331
 30
0.0
 11
21.3817
 21
59.9338
 31
0.0
  0
LINE
  8
0
 62
     0
 10
21.3817
 20
59.9338
 30
0.0
 11
7.38216
 21
59.9338
 31
0.0
  0
LINE
  8
0
 62
     0
 10
7.38216
 20
59.9338
 30
0.0
 11
7.38216
 21
73.9331
 31
0.0
  0
LINE
  8
0
 62
     0
 10
31.1947
 20
73.9331
 30
0.0
 11
45.194
 21
73.9331
 31
0.0
  0
LINE
  8
0
 62
     0
 10
45.194
 20
73.9331
 30
0.0
 11
45.194
 21
59.9338
 31
0.0
  0
LINE
  8
0
 62
     0
 10
45.194
 20
59.9338
 30
0.0
 11
31.1947
 21
59.9338
 31
0.0
  0
LINE
  8
0
 62
     0
 10
31.1947
 20
59.9338
 30
0.0
 11
31.1947
 21
73.9331
 31
0.0
  0
LINE
  8
0
 62
     0
 10
50.2447
 20
73.9331
 30
0.0
 11
64.244
 21
73.9331
 31
0.0
  0
LINE
  8
0
 62
     0
 10
64.244
 20
73.9331
 30
0.0
 11
64.244
 21
59.9338
 31
0.0
  0
LINE
  8
0
 62
     0
 10
64.244
 20
59.9338
 30
0.0
 11
50.2447
 21
59.9338
 31
0.0
  0
LINE
  8
0
 62
     0
 10
50.2447
 20
59.9338
 30
0.0
 11
50.2447
 21
73.9331
 31
0.0
  0
LINE
  8
0
 62
     0
 10
69.2947
 20
73.9331
 30
0.0
 11
83.294
 21
73.9331
 31
0.0
  0
LINE
  8
0
 62
     0
 10
83.294
 20
73.9331
 30
0.0
 11
83.294
 21
59.9338
 31
0.0
  0
LINE
  8
0
 62
     0
 10
83.294
 20
59.9338
 30
0.0
 11
69.2947
 21
59.9338
 31
0.0
  0
LINE
  8
0
 62
     0
 10
69.2947
 20
59.9338
 30
0.0
 11
69.2947
 21
73.9331
 31
0.0
  0
LINE
  8
0
 62
     0
 10
88.3447
 20
73.9331
 30
0.0
 11
102.344
 21
73.9331
 31
0.0
  0
LINE
  8
0
 62
     0
 10
102.344
 20
73.9331
 30
0.0
 11
102.344
 21
59.9338
 31
0.0
  0
LINE
  8
0
 62
     0
 10
102.344
 20
59.9338
 30
0.0
 11
88.3447
 21
59.9338
 31
0.0
  0
LINE
  8
0
 62
     0
 10
88.3447
 20
59.9338
 30
0.0
 11
88.3447
 21
73.9331
 31
0.0
  0
LINE
  8
0
 62
     0
 10
107.395
 20
73.9331
 30
0.0
 11
121.394
 21
73.9331
 31
0.0
  0
LINE
  8
0
 62
     0
 10
121.394
 20
73.9331
 30
0.0
 11
121.394
 21
59.9338
 31
0.0
  0
LINE
  8
0
 62
     0
 10
121.394
 20
59.9338
 30
0.0
 11
107.395
 21
59.9338
 31
0.0
  0
LINE
  8
0
 62
     0
 10
107.395
 20
59.9338
 30
0.0
 11
107.395
 21
73.9331
 31
0.0
  0
LINE
  8
0
 62
     0
 10
126.445
 20
73.9331
 30
0.0
 11
140.444
 21
73.9331
 31
0.0
  0
LINE
  8
0
 62
     0
 10
140.444
 20
73.9331
 30
0.0
 11
140.444
 21
59.9338
 31
0.0
  0
LINE
  8
0
 62
     0
 10
140.444
 20
59.9338
 30
0.0
 11
126.445
 21
59.9338
 31
0.0
  0
LINE
  8
0
 62
     0
 10
126.445
 20
59.9338
 30
0.0
 11
126.445
 21
73.9331
 31
0.0
  0
LINE
  8
0
 62
     0
 10
145.495
 20
73.9331
 30
0.0
 11
159.494
 21
73.9331
 31
0.0
  0
LINE
  8
0
 62
     0
 10
159.494
 20
73.9331
 30
0.0
 11
159.494
 21
59.9338
 31
0.0
  0
LINE
  8
0
 62
     0
 10
159.494
 20
59.9338
 30
0.0
 11
145.495
 21
59.9338
 31
0.0
  0
LINE
  8
0
 62
     0
 10
145.495
 20
59.9338
 30
0.0
 11
145.495
 21
73.9331
 31
0.0
  0
LINE
  8
0
 62
     0
 10
164.545
 20
73.9331
 30
0.0
 11
178.544
 21
73.9331
 31
0.0
  0
LINE
  8
0
 62
     0
 10
178.544
 20
73.9331
 30
0.0
 11
178.544
 21
59.9338
 31
0.0
  0
LINE
  8
0
 62
     0
 10
178.544
 20
59.9338
 30
0.0
 11
164.545
 21
59.9338
 31
0.0
  0
LINE
  8
0
 62
     0
 10
164.545
 20
59.9338
 30
0.0
 11
164.545
 21
73.9331
 31
0.0
  0
LINE
  8
0
 62
     0
 10
183.595
 20
73.9331
 30
0.0
 11
197.594
 21
73.9331
 31
0.0
  0
LINE
  8
0
 62
     0
 10
197.594
 20
73.9331
 30
0.0
 11
197.594
 21
59.9338
 31
0.0
  0
LINE
  8
0
 62
     0
 10
197.594
 20
59.9338
 30
0.0
 11
183.595
 21
59.9338
 31
0.0
  0
LINE
  8
0
 62
     0
 10
183.595
 20
59.9338
 30
0.0
 11
183.595
 21
73.9331
 31
0.0
  0
LINE
  8
0
 62
     0
 10
202.645
 20
73.9331
 30
0.0
 11
216.644
 21
73.9331
 31
0.0
  0
LINE
  8
0
 62
     0
 10
216.644
 20
73.9331
 30
0.0
 11
216.644
 21
59.9338
 31
0.0
  0
LINE
  8
0
 62
     0
 10
216.644
 20
59.9338
 30
0.0
 11
202.645
 21
59.9338
 31
0.0
  0
LINE
  8
0
 62
     0
 10
202.645
 20
59.9338
 30
0.0
 11
202.645
 21
73.9331
 31
0.0
  0
LINE
  8
0
 62
     0
 10
221.695
 20
73.9331
 30
0.0
 11
235.694
 21
73.9331
 31
0.0
  0
LINE
  8
0
 62
     0
 10
235.694
 20
73.9331
 30
0.0
 11
235.694
 21
59.9338
 31
0.0
  0
LINE
  8
0
 62
     0
 10
235.694
 20
59.9338
 30
0.0
 11
221.695
 21
59.9338
 31
0.0
  0
LINE
  8
0
 62
     0
 10
221.695
 20
59.9338
 30
0.0
 11
221.695
 21
73.9331
 31
0.0
  0
LINE
  8
0
 62
     0
 10
240.745
 20
73.9331
 30
0.0
 11
254.744
 21
73.9331
 31
0.0
  0
LINE
  8
0
 62
     0
 10
254.744
 20
73.9331
 30
0.0
 11
254.744
 21
59.9338
 31
0.0
  0
LINE
  8
0
 62
     0
 10
254.744
 20
59.9338
 30
0.0
 11
240.745
 21
59.9338
 31
0.0
  0
LINE
  8
0
 62
     0
 10
240.745
 20
59.9338
 30
0.0
 11
240.745
 21
73.9331
 31
0.0
  0
LINE
  8
0
 62
     0
 10
264.557
 20
73.9331
 30
0.0
 11
278.557
 21
73.9331
 31
0.0
  0
LINE
  8
0
 62
     0
 10
278.557
 20
73.9331
 30
0.0
 11
278.557
 21
59.9338
 31
0.0
  0
LINE
  8
0
 62
     0
 10
278.557
 20
59.9338
 30
0.0
 11
264.557
 21
59.9338
 31
0.0
  0
LINE
  8
0
 62
     0
 10
264.557
 20
59.9338
 30
0.0
 11
264.557
 21
73.9331
 31
0.0
  0
LINE
  8
0
 62
     0
 10
297.895
 20
73.9331
 30
0.0
 11
311.894
 21
73.9331
 31
0.0
  0
LINE
  8
0
 62
     0
 10
311.894
 20
73.9331
 30
0.0
 11
311.894
 21
59.9338
 31
0.0
  0
LINE
  8
0
 62
     0
 10
311.894
 20
59.9338
 30
0.0
 11
297.895
 21
59.9338
 31
0.0
  0
LINE
  8
0
 62
     0
 10
297.895
 20
59.9338
 30
0.0
 11
297.895
 21
73.9331
 31
0.0
  0
LINE
  8
0
 62
     0
 10
259.795
 20
92.9831
 30
0.0
 11
259.795
 21
88.2826
 31
0.0
  0
LINE
  8
0
 62
     0
 10
259.795
 20
88.2826
 30
0.0
 11
258.269
 21
88.2826
 31
0.0
  0
LINE
  8
0
 62
     0
 10
258.269
 20
88.2826
 30
0.0
 11
258.269
 21
91.5127
 31
0.0
  0
LINE
  8
0
 62
     0
 10
258.269
 20
91.5127
 30
0.0
 11
251.52
 21
91.5127
 31
0.0
  0
LINE
  8
0
 62
     0
 10
251.52
 20
91.5127
 30
0.0
 11
251.52
 21
88.2826
 31
0.0
  0
LINE
  8
0
 62
     0
 10
251.52
 20
88.2826
 30
0.0
 11
250.694
 21
88.2826
 31
0.0
  0
LINE
  8
0
 62
     0
 10
250.694
 20
88.2826
 30
0.0
 11
250.694
 21
85.4837
 31
0.0
  0
LINE
  8
0
 62
     0
 10
250.694
 20
85.4837
 30
0.0
 11
251.52
 21
85.4837
 31
0.0
  0
LINE
  8
0
 62
     0
 10
251.52
 20
85.4837
 30
0.0
 11
251.52
 21
79.2138
 31
0.0
  0
LINE
  8
0
 62
     0
 10
251.52
 20
79.2138
 30
0.0
 11
253.243
 21
79.2138
 31
0.0
  0
LINE
  8
0
 62
     0
 10
253.243
 20
79.2138
 30
0.0
 11
253.243
 21
78.0136
 31
0.0
  0
LINE
  8
0
 62
     0
 10
253.243
 20
78.0136
 30
0.0
 11
256.544
 21
78.0136
 31
0.0
  0
LINE
  8
0
 62
     0
 10
256.544
 20
78.0136
 30
0.0
 11
256.544
 21
79.2138
 31
0.0
  0
LINE
  8
0
 62
     0
 10
256.544
 20
79.2138
 30
0.0
 11
258.269
 21
79.2138
 31
0.0
  0
LINE
  8
0
 62
     0
 10
258.269
 20
79.2138
 30
0.0
 11
258.269
 21
83.6828
 31
0.0
  0
LINE
  8
0
 62
     0
 10
258.269
 20
83.6828
 30
0.0
 11
259.795
 21
83.6828
 31
0.0
  0
LINE
  8
0
 62
     0
 10
259.795
 20
83.6828
 30
0.0
 11
259.795
 21
78.9838
 31
0.0
  0
LINE
  8
0
 62
     0
 10
259.795
 20
78.9838
 30
0.0
 11
273.794
 21
78.9838
 31
0.0
  0
LINE
  8
0
 62
     0
 10
273.794
 20
78.9838
 30
0.0
 11
273.794
 21
83.6828
 31
0.0
  0
LINE
  8
0
 62
     0
 10
273.794
 20
83.6828
 30
0.0
 11
275.32
 21
83.6828
 31
0.0
  0
LINE
  8
0
 62
     0
 10
275.32
 20
83.6828
 30
0.0
 11
275.32
 21
79.2138
 31
0.0
  0
LINE
  8
0
 62
     0
 10
275.32
 20
79.2138
 30
0.0
 11
277.045
 21
79.2138
 31
0.0
  0
LINE
  8
0
 62
     0
 10
277.045
 20
79.2138
 30
0.0
 11
277.045
 21
78.0136
 31
0.0
  0
LINE
  8
0
 62
     0
 10
277.045
 20
78.0136
 30
0.0
 11
280.344
 21
78.0136
 31
0.0
  0
LINE
  8
0
 62
     0
 10
280.344
 20
78.0136
 30
0.0
 11
280.344
 21
79.2138
 31
0.0
  0
LINE
  8
0
 62
     0
 10
280.344
 20
79.2138
 30
0.0
 11
282.069
 21
79.2138
 31
0.0
  0
LINE
  8
0
 62
     0
 10
282.069
 20
79.2138
 30
0.0
 11
282.069
 21
85.4837
 31
0.0
  0
LINE
  8
0
 62
     0
 10
282.069
 20
85.4837
 30
0.0
 11
282.895
 21
85.4837
 31
0.0
  0
LINE
  8
0
 62
     0
 10
282.895
 20
85.4837
 30
0.0
 11
282.895
 21
88.2826
 31
0.0
  0
LINE
  8
0
 62
     0
 10
282.895
 20
88.2826
 30
0.0
 11
282.069
 21
88.2826
 31
0.0
  0
LINE
  8
0
 62
     0
 10
282.069
 20
88.2826
 30
0.0
 11
282.069
 21
91.5127
 31
0.0
  0
LINE
  8
0
 62
     0
 10
282.069
 20
91.5127
 30
0.0
 11
275.32
 21
91.5127
 31
0.0
  0
LINE
  8
0
 62
     0
 10
275.32
 20
91.5127
 30
0.0
 11
275.32
 21
88.2826
 31
0.0
  0
LINE
  8
0
 62
     0
 10
275.32
 20
88.2826
 30
0.0
 11
273.794
 21
88.2826
 31
0.0
  0
LINE
  8
0
 62
     0
 10
273.794
 20
88.2826
 30
0.0
 11
273.794
 21
92.9831
 31
0.0
  0
LINE
  8
0
 62
     0
 10
273.794
 20
92.9831
 30
0.0
 11
259.795
 21
92.9831
 31
0.0
  0
LINE
  8
0
 62
     0
 10
2.61965
 20
92.9831
 30
0.0
 11
16.6192
 21
92.9831
 31
0.0
  0
LINE
  8
0
 62
     0
 10
16.6192
 20
92.9831
 30
0.0
 11
16.6192
 21
78.9838
 31
0.0
  0
LINE
  8
0
 62
     0
 10
16.6192
 20
78.9838
 30
0.0
 11
2.61965
 21
78.9838
 31
0.0
  0
LINE
  8
0
 62
     0
 10
2.61965
 20
78.9838
 30
0.0
 11
2.61965
 21
92.9831
 31
0.0
  0
LINE
  8
0
 62
     0
 10
21.6697
 20
92.9831
 30
0.0
 11
35.669
 21
92.9831
 31
0.0
  0
LINE
  8
0
 62
     0
 10
35.669
 20
92.9831
 30
0.0
 11
35.669
 21
78.9838
 31
0.0
  0
LINE
  8
0
 62
     0
 10
35.669
 20
78.9838
 30
0.0
 11
21.6697
 21
78.9838
 31
0.0
  0
LINE
  8
0
 62
     0
 10
21.6697
 20
78.9838
 30
0.0
 11
21.6697
 21
92.9831
 31
0.0
  0
LINE
  8
0
 62
     0
 10
40.7197
 20
92.9831
 30
0.0
 11
54.719
 21
92.9831
 31
0.0
  0
LINE
  8
0
 62
     0
 10
54.719
 20
92.9831
 30
0.0
 11
54.719
 21
78.9838
 31
0.0
  0
LINE
  8
0
 62
     0
 10
54.719
 20
78.9838
 30
0.0
 11
40.7197
 21
78.9838
 31
0.0
  0
LINE
  8
0
 62
     0
 10
40.7197
 20
78.9838
 30
0.0
 11
40.7197
 21
92.9831
 31
0.0
  0
LINE
  8
0
 62
     0
 10
59.7697
 20
92.9831
 30
0.0
 11
73.769
 21
92.9831
 31
0.0
  0
LINE
  8
0
 62
     0
 10
73.769
 20
92.9831
 30
0.0
 11
73.769
 21
78.9838
 31
0.0
  0
LINE
  8
0
 62
     0
 10
73.769
 20
78.9838
 30
0.0
 11
59.7697
 21
78.9838
 31
0.0
  0
LINE
  8
0
 62
     0
 10
59.7697
 20
78.9838
 30
0.0
 11
59.7697
 21
92.9831
 31
0.0
  0
LINE
  8
0
 62
     0
 10
78.8197
 20
92.9831
 30
0.0
 11
92.819
 21
92.9831
 31
0.0
  0
LINE
  8
0
 62
     0
 10
92.819
 20
92.9831
 30
0.0
 11
92.819
 21
78.9838
 31
0.0
  0
LINE
  8
0
 62
     0
 10
92.819
 20
78.9838
 30
0.0
 11
78.8197
 21
78.9838
 31
0.0
  0
LINE
  8
0
 62
     0
 10
78.8197
 20
78.9838
 30
0.0
 11
78.8197
 21
92.9831
 31
0.0
  0
LINE
  8
0
 62
     0
 10
97.8683
 20
92.9831
 30
0.0
 11
111.869
 21
92.9831
 31
0.0
  0
LINE
  8
0
 62
     0
 10
111.869
 20
92.9831
 30
0.0
 11
111.869
 21
78.9838
 31
0.0
  0
LINE
  8
0
 62
     0
 10
111.869
 20
78.9838
 30
0.0
 11
97.8683
 21
78.9838
 31
0.0
  0
LINE
  8
0
 62
     0
 10
97.8683
 20
78.9838
 30
0.0
 11
97.8683
 21
92.9831
 31
0.0
  0
LINE
  8
0
 62
     0
 10
116.918
 20
92.9831
 30
0.0
 11
130.919
 21
92.9831
 31
0.0
  0
LINE
  8
0
 62
     0
 10
130.919
 20
92.9831
 30
0.0
 11
130.919
 21
78.9838
 31
0.0
  0
LINE
  8
0
 62
     0
 10
130.919
 20
78.9838
 30
0.0
 11
116.918
 21
78.9838
 31
0.0
  0
LINE
  8
0
 62
     0
 10
116.918
 20
78.9838
 30
0.0
 11
116.918
 21
92.9831
 31
0.0
  0
LINE
  8
0
 62
     0
 10
135.97
 20
92.9831
 30
0.0
 11
149.969
 21
92.9831
 31
0.0
  0
LINE
  8
0
 62
     0
 10
149.969
 20
92.9831
 30
0.0
 11
149.969
 21
78.9838
 31
0.0
  0
LINE
  8
0
 62
     0
 10
149.969
 20
78.9838
 30
0.0
 11
135.97
 21
78.9838
 31
0.0
  0
LINE
  8
0
 62
     0
 10
135.97
 20
78.9838
 30
0.0
 11
135.97
 21
92.9831
 31
0.0
  0
LINE
  8
0
 62
     0
 10
155.02
 20
92.9831
 30
0.0
 11
169.019
 21
92.9831
 31
0.0
  0
LINE
  8
0
 62
     0
 10
169.019
 20
92.9831
 30
0.0
 11
169.019
 21
78.9838
 31
0.0
  0
LINE
  8
0
 62
     0
 10
169.019
 20
78.9838
 30
0.0
 11
155.02
 21
78.9838
 31
0.0
  0
LINE
  8
0
 62
     0
 10
155.02
 20
78.9838
 30
0.0
 11
155.02
 21
92.9831
 31
0.0
  0
LINE
  8
0
 62
     0
 10
174.07
 20
92.9831
 30
0.0
 11
188.069
 21
92.9831
 31
0.0
  0
LINE
  8
0
 62
     0
 10
188.069
 20
92.9831
 30
0.0
 11
188.069
 21
78.9838
 31
0.0
  0
LINE
  8
0
 62
     0
 10
188.069
 20
78.9838
 30
0.0
 11
174.07
 21
78.9838
 31
0.0
  0
LINE
  8
0
 62
     0
 10
174.07
 20
78.9838
 30
0.0
 11
174.07
 21
92.9831
 31
0.0
  0
LINE
  8
0
 62
     0
 10
193.12
 20
92.9831
 30
0.0
 11
207.119
 21
92.9831
 31
0.0
  0
LINE
  8
0
 62
     0
 10
207.119
 20
92.9831
 30
0.0
 11
207.119
 21
78.9838
 31
0.0
  0
LINE
  8
0
 62
     0
 10
207.119
 20
78.9838
 30
0.0
 11
193.12
 21
78.9838
 31
0.0
  0
LINE
  8
0
 62
     0
 10
193.12
 20
78.9838
 30
0.0
 11
193.12
 21
92.9831
 31
0.0
  0
LINE
  8
0
 62
     0
 10
212.17
 20
92.9831
 30
0.0
 11
226.169
 21
92.9831
 31
0.0
  0
LINE
  8
0
 62
     0
 10
226.169
 20
92.9831
 30
0.0
 11
226.169
 21
78.9838
 31
0.0
  0
LINE
  8
0
 62
     0
 10
226.169
 20
78.9838
 30
0.0
 11
212.17
 21
78.9838
 31
0.0
  0
LINE
  8
0
 62
     0
 10
212.17
 20
78.9838
 30
0.0
 11
212.17
 21
92.9831
 31
0.0
  0
LINE
  8
0
 62
     0
 10
231.22
 20
92.9831
 30
0.0
 11
245.219
 21
92.9831
 31
0.0
  0
LINE
  8
0
 62
     0
 10
245.219
 20
92.9831
 30
0.0
 11
245.219
 21
78.9838
 31
0.0
  0
LINE
  8
0
 62
     0
 10
245.219
 20
78.9838
 30
0.0
 11
231.22
 21
78.9838
 31
0.0
  0
LINE
  8
0
 62
     0
 10
231.22
 20
78.9838
 30
0.0
 11
231.22
 21
92.9831
 31
0.0
  0
LINE
  8
0
 62
     0
 10
297.895
 20
92.9831
 30
0.0
 11
311.894
 21
92.9831
 31
0.0
  0
LINE
  8
0
 62
     0
 10
311.894
 20
92.9831
 30
0.0
 11
311.894
 21
78.9838
 31
0.0
  0
LINE
  8
0
 62
     0
 10
311.894
 20
78.9838
 30
0.0
 11
297.895
 21
78.9838
 31
0.0
  0
LINE
  8
0
 62
     0
 10
297.895
 20
78.9838
 30
0.0
 11
297.895
 21
92.9831
 31
0.0
  0
ENDSEC
  0
EOF
